<!DOCTYPE HTML PUBLIC "-//W3C//DTD HTML 4.0//EN" "http://www.w3.org/TR/REC-html40/strict.dtd">
<html><head><meta name="qrichtext" content="1" /><meta http-equiv="Content-Type" content="text/html; charset=UTF-8" /><style type="text/css">
p, li { white-space: pre-wrap; }
</style></head><body style=" font-family:'DejaVu Sans'; font-size:10pt; font-weight:400; font-style:normal;">
<p style=" margin-top:0px; margin-bottom:0px; margin-left:0px; margin-right:0px; -qt-block-indent:0; text-indent:0px;">ffmpeg -i 1.MTS</p>
<p style=" margin-top:0px; margin-bottom:0px; margin-left:0px; margin-right:0px; -qt-block-indent:0; text-indent:0px;">------------cut--------------</p>
<p style=" margin-top:0px; margin-bottom:0px; margin-left:0px; margin-right:0px; -qt-block-indent:0; text-indent:0px;">Seems stream 0 codec frame rate differs from container frame rate: 50.00 (50/1) -&gt; 50.00 (50/1)</p>
<p style=" margin-top:0px; margin-bottom:0px; margin-left:0px; margin-right:0px; -qt-block-indent:0; text-indent:0px;">Input #0, mpegts, from '1.MTS':</p>
<p style=" margin-top:0px; margin-bottom:0px; margin-left:0px; margin-right:0px; -qt-block-indent:0; text-indent:0px;">  Duration: 00:00:29.67, start: 1.000033, bitrate: 17148 kb/s</p>
<p style=" margin-top:0px; margin-bottom:0px; margin-left:0px; margin-right:0px; -qt-block-indent:0; text-indent:0px;">  Program 1 </p>
<p style=" margin-top:0px; margin-bottom:0px; margin-left:0px; margin-right:0px; -qt-block-indent:0; text-indent:0px;">    Stream #0.0[0x1011]: Video: h264 (High), yuv420p, 1920x1080 [PAR 1:1 DAR 16:9], 50 fps, 50 tbr, 90k tbn, 50 tbc</p>
<p style=" margin-top:0px; margin-bottom:0px; margin-left:0px; margin-right:0px; -qt-block-indent:0; text-indent:0px;">    Stream #0.1[0x1100]: Audio: ac3, 48000 Hz, 5.1, s16, 448 kb/s</p>
<p style=" margin-top:0px; margin-bottom:0px; margin-left:0px; margin-right:0px; -qt-block-indent:0; text-indent:0px;">    Stream #0.2[0x1200]: Subtitle: pgssub</p>
<p style=" margin-top:0px; margin-bottom:0px; margin-left:0px; margin-right:0px; -qt-block-indent:0; text-indent:0px;">At least one output file must be specified</p></body></html>